<svg width="1em" height="1em" viewBox="0 0 24 24" xmlns="http://www.w3.org/2000/svg" data-icon="CodeblockOutlined"><path d="M7.856 1.753c.49 0 .888.447.888.938 0 .49-.398.84-.888.84h-.644c-.844 0-1.244.46-1.244 1.425v4.301c0 1.086-.41 1.892-1.219 2.407-.23.147-.239.543-.01.694.815.542 1.23 1.33 1.23 2.385v4.322c0 .922.399 1.405 1.243 1.405h.644c.49 0 .888.423.888.914 0 .49-.398.863-.888.863H6.812c-.977 0-1.732-.33-2.266-.944-.488-.57-.733-1.36-.733-2.325v-4.126c0-.636-.133-1.097-.4-1.382-.164-.185-.857-.323-1.494-.418-.531-.08-.933-.523-.923-1.06.01-.533.403-.98.93-1.06.633-.095 1.325-.23 1.488-.402.266-.307.4-.768.4-1.383V5.044c0-.987.244-1.777.732-2.348.534-.636 1.289-.943 2.266-.943h1.044Zm8.434 20.494c-.49 0-.888-.447-.888-.938 0-.49.397-.84.888-.84h.644c.844 0 1.244-.46 1.244-1.425v-4.301c0-1.086.41-1.892 1.219-2.407.23-.147.238-.543.01-.694-.816-.542-1.23-1.33-1.23-2.385V4.935c0-.922-.4-1.405-1.243-1.405h-.644c-.49 0-.888-.423-.888-.914 0-.49.397-.863.888-.863h1.044c.977 0 1.732.33 2.265.944.489.57.733 1.36.733 2.325v4.126c0 .636.134 1.097.4 1.382.16.18.764.32 1.343.419.53.09.932.533.922 1.07a1.1 1.1 0 0 1-.929 1.063c-.575.092-1.177.22-1.336.388-.266.307-.4.768-.4 1.382v4.104c0 .987-.244 1.777-.733 2.348-.533.636-1.288.943-2.265.943H16.29Z" fill="currentColor"></path></svg>