<svg width="1em" height="1em" viewBox="0 0 24 24" xmlns="http://www.w3.org/2000/svg" data-icon="HorizontalLineOutlined"><path d="M5.49 7.226A5.107 5.107 0 0 1 6.9 3.831C8.017 2.636 9.718 2 11.819 2c2.142 0 3.779.57 4.867 1.689.4.392.869.958 1.26 1.595.443.723-.191 1.53-1.04 1.53-.606 0-1.039-.447-1.326-.981a2.864 2.864 0 0 0-.362-.517c-.735-.93-1.909-1.419-3.386-1.419-2.404 0-4.154 1.395-4.2 3.393-.02.846.337 1.58.995 2.043h-2.75c-.271-.621-.403-1.332-.385-2.107Zm8.906 6.024H4.038c-.518 0-.938-.38-.938-.897 0-.518.42-.978.938-.978h16.125c.518 0 .937.437.937.954 0 .518-.42.921-.937.921h-2.455c.542.806.96 1.954.934 3.055C18.563 19.82 15.87 22 11.572 22c-2.875 0-5.028-.964-6.13-2.745a6.884 6.884 0 0 1-.545-1.191c-.261-.72.318-1.432 1.084-1.432.574 0 1.034.416 1.24.952.17.445.4.794.733 1.142.805.858 2.104 1.305 3.766 1.305 2.845 0 4.696-1.39 4.747-3.61.024-1.072-.256-1.61-.897-2.42-.473-.598-1.174-.751-1.174-.751Z" fill="currentColor"></path></svg>