<svg width="1em" height="1em" viewBox="0 0 24 24" xmlns="http://www.w3.org/2000/svg" data-icon="H8Outlined"><path d="M2 3a1 1 0 0 0-1 1v16a1 1 0 1 0 2 0v-7h9v7a1 1 0 1 0 2 0V4a1 1 0 1 0-2 0v7H3V4a1 1 0 0 0-1-1Zm17.326 5.972c1.004.011 1.834.344 2.476.997.647.658.976 1.492.987 2.492 0 .528-.11.989-.33 1.378a3.981 3.981 0 0 1-.69.909c.808.636 1.22 1.5 1.231 2.582-.01 1.08-.368 1.953-1.07 2.605-.71.665-1.581 1.004-2.609 1.015-1.019-.01-1.878-.35-2.561-1.012-.725-.653-1.094-1.527-1.105-2.608.01-1.082.423-1.947 1.231-2.582a3.434 3.434 0 0 1-.654-.9c-.245-.392-.366-.856-.366-1.389.01-1 .352-1.834 1.017-2.488.632-.654 1.449-.988 2.443-.999Zm.002 6.736a1.66 1.66 0 0 0-1.143.455c-.322.295-.487.674-.497 1.15.01.465.174.838.504 1.14.31.31.684.465 1.131.465.464 0 .845-.154 1.16-.47.315-.295.475-.671.484-1.131-.01-.48-.17-.86-.484-1.155-.312-.294-.696-.444-1.155-.454Zm1.01-4.35a1.54 1.54 0 0 0-1.015-.353 1.51 1.51 0 0 0-.988.351c-.28.236-.426.589-.436 1.074.01.47.156.814.44 1.053.287.255.612.38.985.38a1.47 1.47 0 0 0 1.009-.38c.272-.237.414-.584.423-1.05-.009-.488-.151-.843-.419-1.075Z" fill="currentColor"></path></svg>