<svg width="1em" height="1em" viewBox="0 0 24 24" xmlns="http://www.w3.org/2000/svg" data-icon="H9Outlined"><path d="M2 3a1 1 0 0 0-1 1v16a1 1 0 1 0 2 0v-7h9v7a1 1 0 1 0 2 0V4a1 1 0 1 0-2 0v7H3V4a1 1 0 0 0-1-1Zm20.07 7.55C21.406 9.518 20.43 9 19.172 9c-1.043 0-1.914.383-2.606 1.152-.693.754-1.042 1.725-1.042 2.9 0 1.15.296 2.083.9 2.802.61.756 1.442 1.14 2.459 1.14a2.96 2.96 0 0 0 1.399-.331c.309-.17.588-.408.836-.712-.038.842-.217 1.555-.532 2.14-.371.667-.84.996-1.414.996-.774 0-1.126-.283-1.59-.772-.247-.26-.599-.518-.937-.518-.536 0-.832.34-.832.875 0 .28.371.856.56 1.033.81.935 2.043 1.316 2.785 1.271 1.192 0 2.155-.598 2.86-1.774.686-1.167 1.034-2.691 1.034-4.526 0-1.751-.324-3.12-.982-4.126Zm-4.113.945c.323-.394.742-.59 1.27-.59.506 0 .925.185 1.246.549.326.37.487.869.487 1.535 0 .661-.159 1.183-.466 1.576-.31.365-.733.556-1.267.556-.548 0-.97-.19-1.27-.559-.323-.366-.478-.86-.478-1.51 0-.653.157-1.164.478-1.556Z" fill="currentColor"></path></svg>