<svg width="1em" height="1em" viewBox="0 0 24 24" xmlns="http://www.w3.org/2000/svg" data-icon="OrderListOutlined"><path d="M4.577 1.809a.543.543 0 0 0-.819-.469l-.502.296-.004.003-.309.187c-.342.207-.858.519-1.142.701a.573.573 0 0 0-.261.485c0 .482.544.774.948.522.227-.141.465-.287.642-.395v3.478a.723.723 0 1 0 1.447 0V1.81Zm-.899 7.128c-1.233 0-2.056.817-2.056 1.84a.25.25 0 0 0 .25.251h.891a.259.259 0 0 0 .26-.259c0-.32.227-.589.608-.589a.62.62 0 0 1 .428.15.52.52 0 0 1 .16.396c0 .315-.188.579-.538.949l-1.815 1.968a.672.672 0 0 0 .494 1.127h3.003a.63.63 0 0 0 0-1.26H3.744l.933-1.047c.61-.652.99-1.127.99-1.834a1.57 1.57 0 0 0-.563-1.226c-.356-.3-.852-.466-1.426-.466Zm.015 7.429c-1.006 0-1.692.478-1.946 1.178a.541.541 0 0 0 .107.553c.122.137.307.22.503.22a.773.773 0 0 0 .478-.18c.125-.098.23-.222.312-.33.096-.124.257-.224.511-.224.21 0 .37.063.472.152a.46.46 0 0 1 .16.359v.002a.503.503 0 0 1-.165.391.71.71 0 0 1-.483.16h-.14a.606.606 0 1 0 0 1.213h.168c.275 0 .468.074.59.178a.538.538 0 0 1 .186.42.554.554 0 0 1-.185.435c-.122.107-.314.184-.583.184-.32 0-.528-.114-.644-.264a1.776 1.776 0 0 0-.308-.323.766.766 0 0 0-.47-.174.678.678 0 0 0-.504.22.549.549 0 0 0-.114.55c.244.717.926 1.22 2.012 1.22.602 0 1.161-.168 1.575-.478.416-.311.683-.768.676-1.323-.01-.69-.376-1.122-.793-1.332.34-.231.63-.644.621-1.224-.019-.962-.92-1.583-2.036-1.583ZM8 4a1 1 0 0 1 1-1h13a1 1 0 1 1 0 2H9a1 1 0 0 1-1-1Zm0 8a1 1 0 0 1 1-1h13a1 1 0 1 1 0 2H9a1 1 0 0 1-1-1Zm0 8a1 1 0 0 1 1-1h13a1 1 0 1 1 0 2H9a1 1 0 0 1-1-1Z" fill="currentColor"></path></svg>