<svg width="1em" height="1em" viewBox="0 0 24 24" xmlns="http://www.w3.org/2000/svg" data-icon="ReferenceOutlined"><path d="M6.865 21C4.275 21 2 18.88 2 15.037c0-4.5 3.143-9.725 6.518-12.422a.888.888 0 0 1 1.203.107c.398.424.32 1.11-.112 1.5-2.412 2.17-5.32 6.855-5.153 9.055.215-.113 1.277-.516 2.801-.516 2.197 0 3.845 1.726 3.845 4.002A4.22 4.22 0 0 1 6.865 21Zm10.898 0c-2.59 0-4.865-2.119-4.865-5.963 0-4.5 3.143-9.725 6.518-12.422a.888.888 0 0 1 1.203.107c.398.424.32 1.11-.112 1.5-2.412 2.17-5.32 6.855-5.153 9.055.215-.113 1.277-.516 2.801-.516 2.197 0 3.845 1.726 3.845 4.002A4.22 4.22 0 0 1 17.763 21Z" fill="currentColor"></path></svg>